<?xml version="1.0" encoding="utf-8" ?>
<svg baseProfile="full" height="600" version="1.1" width="600" 
    xmlns="http://www.w3.org/2000/svg" 
    xmlns:ev="http://www.w3.org/2001/xml-events" 
    xmlns:xlink="http://www.w3.org/1999/xlink">
    <defs>
        <mask id="diag_left_bottom_mask" maskContentUnits="objectBoundingBox" x="0" y="0" width="100%" height="100%">
            <polygon points="1,0 1,0.1 1.1,0.1 1.1,0.2 1.2,0.2 1.2,0.3 1.3,0.3 1.3,0.4 1.4,0.4 1.4,0.5 1.5,0.5 1.5,0.6 1.6,0.6 1.6,0.7 1.7,0.7 1.7,0.8 1.8,0.8 1.8,0.9 1.9,0.9 1.9,1 2,1 3,1 3,0" style="fill:white;">
                <animateTransform attributeName="transform" type="translate" begin="indefinite" dur="1s" from="0 0" to="-2 0" id="diag_left_bottom" fill="freeze" />
            </polygon>
        </mask>
        <mask id="diag_right_top_mask" maskContentUnits="objectBoundingBox" x="0" y="0" width="100%" height="100%">
            <polygon points="-1,0 -1,0.1 -0.9,0.1 -0.9,0.2 -0.8,0.2 -0.8,0.3 -0.7,0.3 -0.7,0.4 -0.6,0.4 -0.6,0.5 -0.5,0.5 -0.5,0.6 -0.4,0.6 -0.4,0.7 -0.3,0.7 -0.3,0.8 -0.2,0.8 -0.2,0.9 -0.1,0.9 -0.1,1 0,1 -2,1 -2,0" style="fill:white;">
                <animateTransform attributeName="transform" type="translate" begin="indefinite" dur="1s" from="0 0" to="2 0" id="diag_right_top" fill="freeze" />
            </polygon>
        </mask>
        <mask id="diag_left_top_mask" maskContentUnits="objectBoundingBox" x="0" y="0" width="100%" height="100%">
            <polygon points="1,1 1,0.9 1.1,0.9 1.1,0.8 1.2,0.8 1.2,0.7 1.3,0.7 1.3,0.6 1.4,0.6 1.4,0.5 1.5,0.5 1.5,0.4 1.6,0.4 1.6,0.3 1.7,0.3 1.7,0.2 1.8,0.2 1.8,0.1 1.9,0.1 1.9,0 2,0 3,0 3,1" style="fill:white;">
                <animateTransform attributeName="transform" type="translate" begin="indefinite" dur="1s" from="0 0" to="-2 0" id="diag_left_top" fill="freeze" />
            </polygon>
        </mask>
        <mask id="diag_right_bottom_mask" maskContentUnits="objectBoundingBox" x="0" y="0" width="100%" height="100%">
            <polygon points="-1,1 -1,0.9 -0.9,0.9 -0.9,0.8 -0.8,0.8 -0.8,0.7 -0.7,0.7 -0.7,0.6 -0.6,0.6 -0.6,0.5 -0.5,0.5 -0.5,0.4 -0.4,0.4 -0.4,0.3 -0.3,0.3 -0.3,0.2 -0.2,0.2 -0.2,0.1 -0.1,0.1 -0.1,0 0,0 -2,0 -2,1" style="fill:white;">
                <animateTransform attributeName="transform" type="translate" begin="indefinite" dur="1s" from="0 0" to="2 0" id="diag_right_bottom" fill="freeze" />
            </polygon>
        </mask>
    </defs>
    <rect fill="green" height="200" id="rect1" stroke="black" width="250" x="25" y="50" style="mask:url(#diag_left_bottom_mask)"></rect>
    <rect fill="red" height="200" id="rect2" stroke="black" width="250" x="325" y="50" style="mask:url(#diag_right_top_mask)"></rect>
    <rect fill="blue" height="200" id="rect1" stroke="black" width="250" x="25" y="350" style="mask:url(#diag_left_top_mask)"></rect>
    <rect fill="yellow" height="200" id="rect2" stroke="black" width="250" x="325" y="350" style="mask:url(#diag_right_bottom_mask)"></rect>
</svg>